<?xml version="1.0" standalone="no"?><!DOCTYPE svg PUBLIC "-//W3C//DTD SVG 1.1//EN" "http://www.w3.org/Graphics/SVG/1.1/DTD/svg11.dtd"><svg t="1523863761932" class="icon" style="" viewBox="0 0 1024 1024" version="1.1" xmlns="http://www.w3.org/2000/svg" p-id="2987" xmlns:xlink="http://www.w3.org/1999/xlink" width="200" height="200"><defs><style type="text/css"></style></defs><path d="M321.41 905.45a26.28 26.28 0 0 1-26.26-26.26V767.24A25.23 25.23 0 0 0 269.92 742H141.4a77.84 77.84 0 0 1-77.75-77.7v-469a77.84 77.84 0 0 1 77.76-77.74h741.3a77.83 77.83 0 0 1 77.73 77.74v469a77.84 77.84 0 0 1-77.73 77.7H531.1a25.17 25.17 0 0 0-16.46 6.1l-176.14 151a26.18 26.18 0 0 1-17.09 6.32z m-164.8-723.7c-13.46 0-24.38 10.63-24.38 23.71v440.89c0 13.06 10.93 23.69 24.38 23.69h124.17c41.43 0 75.13 32.8 75.13 73.08v51.55l128.33-107A76.55 76.55 0 0 1 533.13 670h339.72c13.43 0 24.35-10.63 24.35-23.69V205.46c0-13.07-10.92-23.71-24.35-23.71z m0 0" fill="#ffffff" p-id="2988"></path></svg>