<?xml version="1.0" standalone="no"?><!DOCTYPE svg PUBLIC "-//W3C//DTD SVG 1.1//EN" "http://www.w3.org/Graphics/SVG/1.1/DTD/svg11.dtd"><svg t="1523869031857" class="icon" style="" viewBox="0 0 1024 1024" version="1.1" xmlns="http://www.w3.org/2000/svg" p-id="3213" xmlns:xlink="http://www.w3.org/1999/xlink" width="200" height="200"><defs><style type="text/css"></style></defs><path d="M696.27 140.81c-42.12 7.33-77 20.38-106.44 40.28l-30.2 24.45L512.16 253c-67.72-52-96.89-115.68-223-113.63L236 148c-45.3 13.77-88.76 40.13-115.07 73.36-15.46 19.51-30.56 43-40.28 67.6-57.35 145.46 42 236.19 109.32 303.5L307.91 709l145.27 143.81c17.55 14.18 30.75 38.43 69 31.65 45.83-8.12 93.86-75.17 123.7-105l171.21-169.73c52.81-52.81 112.31-96.87 135.21-179.8 43.42-157.31-102.2-315.91-256-289.12z m185.54 316.44c-22.28 38.19-57.39 66-87.73 96.38L622.91 723.35C607.25 739 526.47 828.46 512.16 826.92c-14.24 1.27-33.22-27.53-43.16-37.4L353.93 675.88l-141-139.52c-27.24-27.24-59.89-52.88-76.25-90.61-29-67-7.84-150.29 30.21-191.31 21.5-23.19 51.85-43.5 86.3-53.22l37.4-5.75c71.9 0.31 88.21 26.41 132.33 47.46l89.18 89.18c46.08-35.33 77.24-90.57 130.89-117.95 117.41-59.9 233.12 24.68 256 122.26 10 42.46-1.35 93.56-17.26 120.82z m0 0" p-id="3214"></path></svg>