<?xml version="1.0" standalone="no"?><!DOCTYPE svg PUBLIC "-//W3C//DTD SVG 1.1//EN" "http://www.w3.org/Graphics/SVG/1.1/DTD/svg11.dtd"><svg t="1525939807740" class="icon" style="" viewBox="0 0 1024 1024" version="1.1" xmlns="http://www.w3.org/2000/svg" p-id="1486" xmlns:xlink="http://www.w3.org/1999/xlink" width="200" height="200"><defs><style type="text/css"></style></defs><path d="M748.1 366.5L485.4 629.1c-7.5 7.4-18.6 7.4-26.1 0L312.2 481.9c-7.5-7.5-18.6-7.5-26.1 0s-7.5 18.6 0 26.1l160.2 160.2c14.9 14.9 37.2 14.9 52.1 0L774 392.6c7.5-7.5 7.5-18.6 0-26.1-7.3-7.5-18.5-7.5-25.9 0z" fill="#545df2" p-id="1487"></path><path d="M511.5 64.8c-247.7 0-447 199.3-447 447s199.3 447 447 447 447-199.3 447-447c0-247.8-199.3-447-447-447z m0 856.7c-227.2 0-409.7-182.5-409.7-409.7s182.5-409.7 409.7-409.7 409.7 184.4 409.7 409.7c0.1 225.3-182.5 409.7-409.7 409.7z" fill="#545df2" p-id="1488"></path></svg>