<?xml version="1.0" standalone="no"?><!DOCTYPE svg PUBLIC "-//W3C//DTD SVG 1.1//EN" "http://www.w3.org/Graphics/SVG/1.1/DTD/svg11.dtd"><svg t="1523605916456" class="icon" style="" viewBox="0 0 1024 1024" version="1.1" xmlns="http://www.w3.org/2000/svg" p-id="2703" xmlns:xlink="http://www.w3.org/1999/xlink" width="200" height="200"><defs><style type="text/css"></style></defs><path d="M864 764.43a258.09 258.09 0 0 1 6.79 34.57 306 306 0 0 1 2.92 42.32 228.13 228.13 0 0 1-3.41 40.37q-3.41 19-10.21 28.7-4.86 6.81-24.8 13.13t-50.11 11.67q-30.16 5.36-67.13 10.22t-73.94 8.27q-37 3.4-72 4.86T510.84 960q-26.27 0-60.8-2t-71-4.86q-36.47-2.92-72.47-6.81t-65.67-8.75q-29.68-4.86-50.59-9.24t-25.78-9.24q-8.76-6.81-13.62-43.29t3.87-94.81q4.86-33.07 26.75-50.58a173.13 173.13 0 0 1 50.59-27.73 627.42 627.42 0 0 1 60.31-18q31.62-7.77 55-23.34 18.47-11.68 28.7-22.37t14.6-21.41a58.61 58.61 0 0 0 4.38-22.37q0-11.69-1-26.27-1.95-21.41-14.12-33.08t-26.76-24.35q-7.78-5.83-13.13-17t-10.21-22.86a240.16 240.16 0 0 1-8.75-28.21q-1.95-1.95-5.84-6.81-2.93-4.86-6.81-13.13a196.25 196.25 0 0 1-8.75-23.83 156.9 156.9 0 0 1-6.32-27.73q-1.46-12.16 0.48-20.91a51.38 51.38 0 0 1 4.87-18.48 600.14 600.14 0 0 1 3.89-68.1 516.87 516.87 0 0 1 12.65-61.29 173.16 173.16 0 0 1 28.21-59.35q17.51-24.31 37.94-40.36a171.8 171.8 0 0 1 42.31-24.84A200.23 200.23 0 0 1 468 66.44 285 285 0 0 1 510.84 63q22.37 1.95 36.48 5.35t22.86 8.27a60.38 60.38 0 0 1 15.09 11.68q6.31 6.8 13.13 13.61h18.48a60 60 0 0 1 17 2.43 47.21 47.21 0 0 1 16.55 9.25q8.26 6.8 18 19.46a202.3 202.3 0 0 1 33.08 63.71 465 465 0 0 1 15.56 65.66 666.68 666.68 0 0 1 5.83 71 51.12 51.12 0 0 1 2.93 11.68q1 6.8 1.46 16.53a137.64 137.64 0 0 1-1.45 24.37q-2 19.45-5.83 30.64t-8.76 17a29.76 29.76 0 0 1-10.7 9.73 244.33 244.33 0 0 1-8.75 28.22q-4.87 11.66-10.22 22.86t-13.13 17q-16.54 13.62-27.24 22.86T626.6 566a96.88 96.88 0 0 0-1.94 27.23 82.24 82.24 0 0 0 7.34 27.72q6.33 14.11 20.43 26.75t39.4 22.37a484.07 484.07 0 0 0 49.13 16q26.77 7.31 51.56 16.55a174.85 174.85 0 0 1 44.27 23.83A76.47 76.47 0 0 1 864 764.43z m-312.29-32.1a14.45 14.45 0 0 0 0.49-12.16 43.57 43.57 0 0 0-7.3-12.17q-4.86-5.83-11.67-12.64h-44.77a85.79 85.79 0 0 0-10.7 12.64 44.67 44.67 0 0 0-6.32 10.7q-2.43 5.83 0.49 10.7 6.8 13.62 11.67 23.84t10.7 16.05q-1.94 8.76-5.83 24.8t-7.29 33.08q-3.41 17-5.83 32.1t-2.43 22.86q0 4.86 4.37 11.67a169.75 169.75 0 0 0 10.22 14.11 71.78 71.78 0 0 0 12.16 12.16q6.33 4.86 11.19 4.87t11.67-4.87a103.43 103.43 0 0 0 13.13-11.19 70.1 70.1 0 0 0 10.71-13.63q4.37-7.29 4.38-12.15 0-5.84-2.92-19.94t-6.32-31.62q-3.4-17.51-7.29-34t-6.82-26.27q5.84-4.86 11.2-14.1t13.13-24.81z m0 0" fill="#4A97FF" p-id="2704"></path></svg>