<?xml version="1.0" standalone="no"?><!DOCTYPE svg PUBLIC "-//W3C//DTD SVG 1.1//EN" "http://www.w3.org/Graphics/SVG/1.1/DTD/svg11.dtd"><svg t="1524049031560" class="icon" style="" viewBox="0 0 1024 1024" version="1.1" xmlns="http://www.w3.org/2000/svg" p-id="1039" xmlns:xlink="http://www.w3.org/1999/xlink" width="200" height="200"><defs><style type="text/css"></style></defs><path d="M904.32 484.2c-5.58-48.34-43.7-85.55-97-94.71-64.65-11.07-133.83-8-200.69-5-11.05 0.53-21.91 0.95-32.54 1.36 2.85-10.43 5.9-22.34 9.16-35.82 15.79-63.21 30.64-144.13 5.48-209.87C570.12 91.42 530.53 62.77 486.3 64c-44.43 1.79-82.44 34.76-97.09 84.28-5.79 19.81-10.42 40-15 59.53-10 43.62-19.34 84.81-40.82 119.47-33.91 54.79-117.72 84.81-182.9 86.29a32.47 32.47 0 0 0-31.72 33.19v476.69a32.37 32.37 0 0 0 32.33 32.45l100.24 0.31q111 0.31 222.18 0.53 80.71 0 161.32-0.11c8 0.53 16.74 0.74 26.12 1.47 11.38 0.95 24 1.9 37 1.9 30.08 0 62-5.37 84.24-29.81 21.27-23.5 29.17-52.89 35.38-76.49l76.65-288.57c5.99-22.89 13.58-51.33 10.09-80.93z m-71.52 64.18L756 836.94c-4.74 17.7-10 37.83-20.64 49.52-10.42 11.48-43.8 8.85-68.12 6.84-11.27-0.95-22.43-1.69-31.38-1.69q-80.57 0.31-161 0.11-111-0.16-222.07-0.53l-67.88-0.19-1.7-341.63-0.87-74.78s159.15-34.7 207.58-113c27.17-43.83 38.22-92.29 49-139.18 4.43-19.49 8.59-37.83 13.9-55.74 6.63-22.65 21.06-37.09 37.38-37.72 16.21-0.95 30.85 12.23 39.38 34.56 18.84 49.42 4.63 121.27-8 171.73-8.95 36.34-15 55.21-18 62.37a32.43 32.43 0 0 0 23.8 54.47h0.21c27.28-0.21 55.7-1.47 83.29-2.74 63.49-2.85 129.09-5.79 186.93 4.1 9.37 1.58 40.12 9.06 43.49 38.14 2 17.38-3.3 37.4-8.45 56.79z" fill="#999999" p-id="1040"></path></svg>