<?xml version="1.0" standalone="no"?><!DOCTYPE svg PUBLIC "-//W3C//DTD SVG 1.1//EN" "http://www.w3.org/Graphics/SVG/1.1/DTD/svg11.dtd"><svg t="1523426817808" class="icon" style="" viewBox="0 0 1024 1024" version="1.1" xmlns="http://www.w3.org/2000/svg" p-id="2781" xmlns:xlink="http://www.w3.org/1999/xlink" width="200" height="200"><defs><style type="text/css"></style></defs><path d="M221.75 604.08c5.37-6.49 26.89-30.2 54.68-30.2h0.13c29.6 0 51.08 22.51 54.87 26.76L419 695.12c3.57 3.62 9.94 7.63 13.21 7.63 3.59 0 7.05-3.61 8-4.74l143.93-228.37c3.53-5.77 29-44.92 70.73-44.92 40.08 0 64.33 32.27 68.85 38.83L943 757.77v-533c0-47.57-36.34-86.13-81-86.13H159.64c-44.78 0-81 38.56-81 86.13v535.75z m143-271a63.9 63.9 0 1 1-63.91 63.89 63.92 63.92 0 0 1 63.91-63.89z m0-23.59" p-id="2782" fill="#6F7277"></path><path d="M687.1 494.92l-0.2-0.32c-1.14-1.57-13-17.27-29.3-17.27-13.33 0-26.11 15.43-29.65 21l-0.26 0.41L480.6 728.95l-0.35 0.5c-1.88 2.66-19.17 25.92-48.47 25.92-25.67 0-45.21-19.16-48.86-23l-0.1-0.11-89.74-95.41-0.07-0.08c-2.64-2.81-11.33-10.26-19.2-10.26-4.46 0-13.94 7.56-17.93 12.47l-0.53 0.65-0.57 0.61L78.59 830c11.87 32.26 41.72 55.18 76.7 55.18H867.6c33.71 0 62.69-21.31 75.37-51.77z m0 0" p-id="2783" fill="#6F7277"></path></svg>