<?xml version="1.0" standalone="no"?><!DOCTYPE svg PUBLIC "-//W3C//DTD SVG 1.1//EN" "http://www.w3.org/Graphics/SVG/1.1/DTD/svg11.dtd"><svg t="1523860947173" class="icon" style="" viewBox="0 0 1024 1024" version="1.1" xmlns="http://www.w3.org/2000/svg" p-id="2927" xmlns:xlink="http://www.w3.org/1999/xlink" width="200" height="200"><defs><style type="text/css"></style></defs><path d="M848.46 104.34H176a112.14 112.14 0 0 0-112 112v448.71a112.14 112.14 0 0 0 112 112h219.93L512.1 919 628 777.08h220.2a112.14 112.14 0 0 0 112-112V216.36c0.3-61.77-50-112-111.73-112zM269.13 497.46a54.09 54.09 0 1 1 54.09-54.09 54.12 54.12 0 0 1-54.09 54.09z m243.56 0a54.09 54.09 0 1 1 54.09-54.09 54.12 54.12 0 0 1-54.09 54.09z m243.56 0a54.09 54.09 0 1 1 54.09-54.09 54.12 54.12 0 0 1-54.09 54.09z m0 0" fill="#97AAD4" p-id="2928"></path></svg>