<?xml version="1.0" standalone="no"?><!DOCTYPE svg PUBLIC "-//W3C//DTD SVG 1.1//EN" "http://www.w3.org/Graphics/SVG/1.1/DTD/svg11.dtd"><svg t="1524107340044" class="icon" style="" viewBox="0 0 1024 1024" version="1.1" xmlns="http://www.w3.org/2000/svg" p-id="4561" xmlns:xlink="http://www.w3.org/1999/xlink" width="200" height="200"><defs><style type="text/css"></style></defs><path d="M951.93 165.87a77.51 77.51 0 0 0-77.07-66.38H152a77 77 0 0 0-77.1 77v480.57c2.66 42.48 37.21 77 79.73 77h159.44c21.26 0 34.83-11.59 34.83-32.83s-13.57-31.42-34.83-31.42h-141.6c-21.36 0-33.2-11.82-33.21-33.18V191.79c0.11-21.29 11.92-33 33.21-33 0 0 643 0.32 680.4 0.32s32.08 31.25 32.08 31.25v446.27c0 21.36-11.85 33.18-33.21 33.18h-341c-13.29 0-26.57 8-34.54 18.59L282.73 866.32c-15.65 15.62-10.73 35.07-1.08 44.68 12.25 12.24 35.62 16 51.39 0.15L518.73 734h353.46c39.87 0 74.41-31.86 79.73-71.69z" p-id="4562" fill="#888888"></path></svg>