<?xml version="1.0" standalone="no"?><!DOCTYPE svg PUBLIC "-//W3C//DTD SVG 1.1//EN" "http://www.w3.org/Graphics/SVG/1.1/DTD/svg11.dtd"><svg t="1525914374480" class="icon" style="" viewBox="0 0 1024 1024" version="1.1" xmlns="http://www.w3.org/2000/svg" p-id="1458" xmlns:xlink="http://www.w3.org/1999/xlink" width="200" height="200"><defs><style type="text/css"></style></defs><path d="M517.8 272.1h-12v234h-234v12h234v234h12v-234h234v-12h-234zM947.3 816.6h12v71.7h-12zM947.3 709.1h12v71.7h-12zM947.3 601.5h12v71.7h-12zM947.3 494h12v71.7h-12zM947.3 386.5h12v71.7h-12zM947.3 279h12v71.7h-12zM947.3 171.5h12v71.7h-12zM947.3 63.9H906v12h41.3v59.7h12V63.9zM794.4 63.9h71.7v12h-71.7zM685.2 63.9h71.7v12h-71.7zM576.1 63.9h71.7v12h-71.7zM466.9 63.9h71.7v12h-71.7zM357.7 63.9h71.7v12h-71.7zM248.6 63.9h71.7v12h-71.7zM139.4 63.9h71.7v12h-71.7zM64.2 816.6h12v71.7h-12zM76.2 924.4h-12v35.8H100v-12H76.2zM64.2 709.1h12v71.7h-12zM64.2 601.5h12v71.7h-12zM64.2 494h12v71.7h-12zM64.2 386.5h12v71.7h-12zM64.2 279h12v71.7h-12zM64.2 171.5h12v71.7h-12zM64.2 63.9v71.7h12V75.9h28.6v-12H76.2zM135 948.2h71.7v12H135zM242.5 948.2h71.7v12h-71.7zM350.1 948.2h71.7v12h-71.7zM457.6 948.2h71.7v12h-71.7zM565.1 948.2h71.7v12h-71.7zM672.6 948.2h71.7v12h-71.7zM780.1 948.2h71.7v12h-71.7zM947.3 920.3v27.9h-59.6v12h71.6v-39.9z" p-id="1459" fill="#E5E5E5"></path></svg>