<svg xmlns="http://www.w3.org/2000/svg" viewBox="0 0 1024 1024"><defs><style>.cls-1{fill:#4d4d4d;}</style></defs><title>ic_qunchenyuan</title><path class="cls-1" d="M512,96C282.23,96,96,282.23,96,512S282.23,928,512,928,928,741.77,928,512,741.77,96,512,96ZM316.06,675.28c0-59.89,40.07-144.19,96.22-164.78-21.18-15.51-35.46-41.59-35.46-71.73,0-48.92,38.68-90,87.48-90,47.92,0,88.89,41.1,88.89,90,0,30.14-14.71,56.22-39.58,71.73,59.86,20.59,99.93,104.89,99.93,164.78Zm316.32,0c0-57.64-33.15-141.47-88.4-168,17.93-16.92,28.56-42.94,28.56-68.54,0-10.52-3.22-22.39-4.6-30.63a50.24,50.24,0,0,1,18.88-3.18c41.44,0,72.32,32,72.32,72.68,0,19.69-12,44.82-29.95,58.08,46,16,78.75,91.14,78.75,139.57Z"/></svg>