<?xml version="1.0" standalone="no"?><!DOCTYPE svg PUBLIC "-//W3C//DTD SVG 1.1//EN" "http://www.w3.org/Graphics/SVG/1.1/DTD/svg11.dtd"><svg t="1524296214674" class="icon" style="" viewBox="0 0 1024 1024" version="1.1" xmlns="http://www.w3.org/2000/svg" p-id="1295" xmlns:xlink="http://www.w3.org/1999/xlink" width="200" height="200"><defs><style type="text/css"></style></defs><path d="M511.5 64.8c-247.7 0-447 199.3-447 447s199.3 447 447 447 447-199.3 447-447c0-247.8-199.3-447-447-447z m0 879.4C271.7 944.2 79 751.6 79 511.7 79 271.9 271.6 79.2 511.5 79.2 751.3 79.3 944 273.9 944 511.7c0 237.9-192.7 432.5-432.5 432.5z" fill="#282c6d" p-id="1296"></path><path d="M684.4 624.5c-17-12.6-34.9-24.4-50.3-33.1-25.8-14.5-37.5-16.6-44.7-16.8-10-0.3-24.7 3.1-37.6 20.8-6.2 8.5-10.8 18.4-15.3 28-1.5 3.1-4.3 9.2-6.7 13.6-5.8-2.6-16.8-8.4-34.1-20.9-20.8-15-43.3-34.4-60.1-51.6-16.4-17.8-34.5-41.4-48.4-63-11.5-18-16.7-29.2-19-35.2 4.5-2.2 10.8-4.7 14-6 9.8-3.9 19.9-7.9 28.7-13.7 18.4-11.9 22.6-26.4 22.8-36.4 0.2-7.3-1.2-19-14.3-45.6-7.8-15.9-18.6-34.4-30.2-52.1-8.7-13.2-22.1-32.2-36.1-47.7-17.1-18.8-30.8-27.3-44.4-27.7-31.3-0.9-52.9 26.4-63.6 39.9-13 16-43 58-44.1 99-1.1 38 22.3 86.8 42.1 121 26.1 45.1 62.6 94 102.8 137.6l13.2 13.9c41.3 42.5 88 81.6 131.6 110.2 33.1 21.7 80.5 47.7 118.5 48.8 44.8 1.2 74.3-14.8 88-24.4 17.2-12.1 57.2-43.7 58-74 0.4-13.6-7.4-27.8-25.2-45.9-14.7-14.9-32.9-29.3-45.6-38.7z m3.6 145.7c-12 8.5-38.2 22.6-78.4 21.5-34.3-1-78.9-25.7-110.3-46.2-42.7-28-88.5-66.3-129-108.1l-12.9-13.6c-39.4-42.7-75.1-90.6-100.7-134.7-18.8-32.5-41-78.4-40-112.7 1-36.3 28.7-74.9 40.8-90.1 8.8-11.1 27.2-34.2 50.6-33.6 8.9 0.2 19.4 7.4 33.2 22.5 13.4 14.7 26.2 33 34.6 45.7 11.3 17.2 21.7 35.1 29.3 50.4 13 26.5 12.8 35.3 12.7 38.2-0.3 9.2-5.4 17-15.7 23.7-7.5 4.9-16.9 8.6-26 12.3-9.2 3.7-17.9 7.3-22.3 10.6l-4 3 1 4.9c0.9 4.5 5 18 22.9 45.8 14.3 22.4 33 46.7 50.2 65.3 17.5 18 40.8 38 62.3 53.6 26.8 19.4 40 24.2 44.5 25.4l4.8 1.3 3.2-3.8c3.6-4.2 7.6-12.7 11.8-21.6 4.1-8.9 8.4-18 13.7-25.3 7.2-9.9 15.2-14.6 24.5-14.3 2.9 0.1 11.7 0.3 37.4 14.8 14.9 8.4 32.2 19.8 48.7 32 12.3 9.1 29.8 23 43.7 37.1 14.3 14.6 20.9 25.6 20.7 34.4-0.5 19-26.8 44.2-51.3 61.5zM565.4 430.3c13.6 16.2 19.8 36.4 17.4 56.8l15.1 1.7c2.8-24.6-4.6-48.9-20.8-68.3-16-19.1-38.8-31.2-64.1-34.1l-1.7 15.1c21.3 2.4 40.6 12.6 54.1 28.8zM627.6 379.2c23.7 28.2 34.5 63.4 30.4 99.1l15.1 1.7c4.6-39.8-7.4-79.1-33.8-110.6-26.1-31.2-63.3-50.9-104.7-55.7l-1.7 15.1c37.4 4.4 71.1 22.3 94.7 50.4zM547.9 239l-1.7 15.1c61 7 115.7 36.1 154.1 81.8 38.4 45.8 55.9 102.9 49.2 160.7l15.1 1.7c7.2-62-11.6-123.2-52.7-172.2-41-48.7-99.2-79.7-164-87.1z" fill="#282c6d" p-id="1297"></path></svg>