<?xml version="1.0" standalone="no"?><!DOCTYPE svg PUBLIC "-//W3C//DTD SVG 1.1//EN" "http://www.w3.org/Graphics/SVG/1.1/DTD/svg11.dtd"><svg t="1523344597023" class="icon" style="" viewBox="0 0 1024 1024" version="1.1" xmlns="http://www.w3.org/2000/svg" p-id="5055" xmlns:xlink="http://www.w3.org/1999/xlink" width="200" height="200"><defs><style type="text/css"></style></defs><path d="M512 928C282.6 928 96 741.4 96 512S282.6 96 512 96s416 186.6 416 416-186.6 416-416 416z m0-817.47c-221.35 0-401.44 180.08-401.44 401.44S290.65 913.44 512 913.44 913.44 733.35 913.44 512 733.35 110.56 512 110.56z" p-id="5056"></path><path d="M310.21 377.88a53.99 72.99 0 1 0 107.98 0 53.99 72.99 0 1 0-107.98 0Z" p-id="5057"></path><path d="M607.64 377.88a53.99 72.99 0 1 0 107.98 0 53.99 72.99 0 1 0-107.98 0Z" p-id="5058"></path><path d="M783.88 541.2C783.88 666.7 662.16 793 512 793S240.12 666.7 240.12 541.2z" p-id="5059"></path></svg>