<?xml version="1.0" standalone="no"?><!DOCTYPE svg PUBLIC "-//W3C//DTD SVG 1.1//EN" "http://www.w3.org/Graphics/SVG/1.1/DTD/svg11.dtd"><svg t="1523344310627" class="icon" style="" viewBox="0 0 1024 1024" version="1.1" xmlns="http://www.w3.org/2000/svg" p-id="4835" xmlns:xlink="http://www.w3.org/1999/xlink" width="200" height="200"><defs><style type="text/css"></style></defs><path d="M512 928.22C282.5 928.22 95.78 741.5 95.78 512S282.5 95.78 512 95.78 928.22 282.5 928.22 512 741.5 928.22 512 928.22z m0-817.83c-221.45 0-401.61 180.16-401.61 401.61S290.55 913.61 512 913.61 913.61 733.44 913.61 512 733.44 110.39 512 110.39z" p-id="4836"></path><path d="M579.17 753l-38.3-38.31c58.2-49.8 95.23-123.66 95.23-206.28 0-78.71-33.69-149.37-87.19-199L587.3 271c63.3 59.41 103.06 143.62 103.06 237.27 0 97.61-43.16 185-111.19 244.66z m0 0" p-id="4837"></path><path d="M475.8 649.6l-39.46-39.45a116.26 116.26 0 0 0 9.59-197.75l38.75-38.74a170.42 170.42 0 0 1-8.88 275.94z m-103.39-94.76a38.77 38.77 0 1 1 38.78-38.77 38.77 38.77 0 0 1-38.78 38.77z m0 0" p-id="4838"></path></svg>