<?xml version="1.0" standalone="no"?><!DOCTYPE svg PUBLIC "-//W3C//DTD SVG 1.1//EN" "http://www.w3.org/Graphics/SVG/1.1/DTD/svg11.dtd"><svg t="1524107356647" class="icon" style="" viewBox="0 0 1024 1024" version="1.1" xmlns="http://www.w3.org/2000/svg" p-id="4730" xmlns:xlink="http://www.w3.org/1999/xlink" width="200" height="200"><defs><style type="text/css"></style></defs><path d="M950.4 397.696a80.61866667 80.61866667 0 0 0-64.13866667-54.4l-210.272-32.21333333-91.34933333-195.21066667a79.94666667 79.94666667 0 0 0-145.25866667 0L348.02133333 311.14666667l-210.25066666 32.256c-29.86666667 4.49066667-54.4 25.29066667-64.18133334 54.4A81.97333333 81.97333333 0 0 0 92.50133333 481.06666667l154.336 158.76266666-35.79733333 219.98933334a82.64533333 82.64533333 0 0 0 33.33333333 80.16 80.512 80.512 0 0 0 84.58666667 4.672L512 843.05066667l183.17866667 101.61066666a79.28533333 79.28533333 0 0 0 84.55466666-4.74666666 82.54933333 82.54933333 0 0 0 33.19466667-80.064l-35.72266667-220L931.552 481.06666667A82.13333333 82.13333333 0 0 0 950.4 397.696z m-79.78666667 62.18666667l-148.704 145.06666666a16.736 16.736 0 0 0-4.84266666 14.784l34.48533333 217.09866667c2.336 13.46133333 2.02666667 36.736-9.80266667 44.8-12.11733333 8.064-34.13333333-0.992-47.01866666-7.72266667l-177.216-93.22666666a16.43733333 16.43733333 0 0 0-15.31733334 0l-177.06666666 93.19466666c-13.03466667 6.80533333-28.16 18.42133333-48.42666667 5.62133334-11.95733333-8.08533333-1.25866667-29.184 1.06666667-42.66666667l34.528-217.216c0.91733333-5.33333333-8.32-10.77333333-12.192-14.56l-150.944-145.17333333a34.208 34.208 0 0 1-8.78933334-36.01066667c4.576-12.90666667 16.30933333-22.19733333 30.688-24.24533333l203.01866667-29.536a16.49066667 16.49066667 0 0 0 12.50133333-9.19466667l88.34133334-190.69866667C481.19466667 157.49333333 494.93333333 135.46666667 509.86666667 135.46666667s28.736 22.05866667 34.99733333 34.752l88.30933333 190.656a16.576 16.576 0 0 0 12.56533334 9.23733333l202.92266666 29.472c14.35733333 2.13333333 26.144 11.43466667 30.69866667 24.26666667a34.304 34.304 0 0 1-8.77866667 36.032z" p-id="4731" fill="#888888"></path></svg>