<?xml version="1.0" standalone="no"?><!DOCTYPE svg PUBLIC "-//W3C//DTD SVG 1.1//EN" "http://www.w3.org/Graphics/SVG/1.1/DTD/svg11.dtd"><svg t="1523426946047" class="icon" style="" viewBox="0 0 1024 1024" version="1.1" xmlns="http://www.w3.org/2000/svg" p-id="2922" xmlns:xlink="http://www.w3.org/1999/xlink" width="200" height="200"><defs><style type="text/css"></style></defs><path d="M959.25 771a11.26 11.26 0 0 1-0.95 1.76V292.84a55.22 55.22 0 0 0-55.29-55H735.49l-0.95-1.83L712.9 193c-2.48-5.51-24.61-52.58-54.77-52.58H364.21c-30.84 0-53.56 49.94-54.51 52.08L287.8 236l-0.95 1.83H119.29a55.22 55.22 0 0 0-55.29 55v535.75a55.22 55.22 0 0 0 55.29 55H903a55.22 55.22 0 0 0 55.29-55v-55.25c0.56-0.78 1.21-1.5 1.7-2.35z m-450.92-43.51C403.95 727.49 319 643 319 539.16s85-188.29 189.34-188.29 189.31 84.47 189.31 188.29-84.94 188.33-189.32 188.33z m289.78-326.21a44.1 44.1 0 1 1 44.11-44.09 44.15 44.15 0 0 1-44.11 44.09z" p-id="2923" fill="#6F7277"></path></svg>