<?xml version="1.0" standalone="no"?><!DOCTYPE svg PUBLIC "-//W3C//DTD SVG 1.1//EN" "http://www.w3.org/Graphics/SVG/1.1/DTD/svg11.dtd"><svg t="1524293843801" class="icon" style="" viewBox="0 0 1024 1024" version="1.1" xmlns="http://www.w3.org/2000/svg" p-id="1265" xmlns:xlink="http://www.w3.org/1999/xlink" width="200" height="200"><defs><style type="text/css"></style></defs><path d="M686.6 366.4c4.4 0 8.7 0.1 13 0.3-27.5-126-157.3-221.3-313.4-221.3-176 0-318.7 121.4-318.7 271.2 0 87.5 48.7 165.3 124.3 214.9L160 725.3l105.5-57.8c37.3 13 78 20.2 120.8 20.2 8.2 0 16.4-0.3 24.5-0.8-8.9-23.6-13.8-48.8-13.8-74.9 0-135.7 129.6-245.6 289.6-245.6z m-190.4-87c26 0 47.1 21.1 47.1 47.1s-21.1 47.1-47.1 47.1-47.1-21.1-47.1-47.1c0.1-26 21.1-47.1 47.1-47.1z m-218.9 94.1c-26 0-47.1-21.1-47.1-47.1s21.1-47.1 47.1-47.1 47.1 21.1 47.1 47.1c-0.1 26.1-21.2 47.1-47.1 47.1z m0 0" fill="#00C90F" p-id="1266"></path><path d="M955.7 611.9c0-126-120.5-228.2-269.1-228.2S417.4 485.9 417.4 611.9s120.5 228.2 269.1 228.2c31.2 0 61.2-4.5 89-12.8l92 50.5-26.7-78.9c69.5-41.3 114.9-109.6 114.9-187z m-353.2-32.7c-20.8 0-37.7-16.9-37.7-37.7 0-20.8 16.9-37.7 37.7-37.7 20.8 0 37.7 16.9 37.7 37.7 0 20.8-16.9 37.7-37.7 37.7z m175.3 0c-20.8 0-37.7-16.9-37.7-37.7 0-20.8 16.9-37.7 37.7-37.7 20.8 0 37.7 16.9 37.7 37.7 0 20.8-16.9 37.7-37.7 37.7z m0 0" fill="#00C90F" p-id="1267"></path></svg>